<mxfile host="app.diagrams.net" agent="Mozilla/5.0 (Windows NT 10.0; Win64; x64) AppleWebKit/537.36 (KHTML, like Gecko) Chrome/133.0.0.0 Safari/537.36" version="26.1.0">
  <diagram name="Page-1" id="74e2e168-ea6b-b213-b513-2b3c1d86103e">
    <mxGraphModel dx="706" dy="456" grid="1" gridSize="10" guides="1" tooltips="1" connect="1" arrows="1" fold="1" page="1" pageScale="1" pageWidth="1100" pageHeight="850" background="none" math="0" shadow="0">
      <root>
        <mxCell id="0" />
        <mxCell id="1" parent="0" />
        <mxCell id="Zn8wyA_PSWBel0TrAcym-9" style="edgeStyle=orthogonalEdgeStyle;rounded=0;orthogonalLoop=1;jettySize=auto;html=1;exitX=1;exitY=0.5;exitDx=0;exitDy=0;entryX=0;entryY=0.5;entryDx=0;entryDy=0;shape=flexArrow;" edge="1" parent="1" source="Zn8wyA_PSWBel0TrAcym-1" target="Zn8wyA_PSWBel0TrAcym-7">
          <mxGeometry relative="1" as="geometry" />
        </mxCell>
        <mxCell id="Zn8wyA_PSWBel0TrAcym-10" style="edgeStyle=orthogonalEdgeStyle;rounded=0;orthogonalLoop=1;jettySize=auto;html=1;exitX=0;exitY=1;exitDx=0;exitDy=0;entryX=0;entryY=0;entryDx=0;entryDy=0;shape=flexArrow;" edge="1" parent="1" source="Zn8wyA_PSWBel0TrAcym-1" target="Zn8wyA_PSWBel0TrAcym-4">
          <mxGeometry relative="1" as="geometry" />
        </mxCell>
        <mxCell id="Zn8wyA_PSWBel0TrAcym-1" value="Battery Innovation" style="ellipse;whiteSpace=wrap;html=1;fillColor=#fff2cc;strokeColor=#d6b656;" vertex="1" parent="1">
          <mxGeometry x="40" y="100" width="120" height="60" as="geometry" />
        </mxCell>
        <mxCell id="Zn8wyA_PSWBel0TrAcym-3" value="Value Creation" style="text;html=1;align=center;verticalAlign=middle;whiteSpace=wrap;rounded=0;fillColor=#dae8fc;strokeColor=#6c8ebf;" vertex="1" parent="1">
          <mxGeometry x="50" y="40" width="100" height="30" as="geometry" />
        </mxCell>
        <mxCell id="Zn8wyA_PSWBel0TrAcym-11" style="edgeStyle=orthogonalEdgeStyle;rounded=0;orthogonalLoop=1;jettySize=auto;html=1;exitX=1;exitY=0;exitDx=0;exitDy=0;entryX=1;entryY=1;entryDx=0;entryDy=0;shape=flexArrow;" edge="1" parent="1" source="Zn8wyA_PSWBel0TrAcym-4" target="Zn8wyA_PSWBel0TrAcym-1">
          <mxGeometry relative="1" as="geometry" />
        </mxCell>
        <mxCell id="Zn8wyA_PSWBel0TrAcym-4" value="R&amp;amp;D of 4680 battery" style="ellipse;whiteSpace=wrap;html=1;fillColor=#e1d5e7;strokeColor=#9673a6;" vertex="1" parent="1">
          <mxGeometry x="40" y="200" width="120" height="50" as="geometry" />
        </mxCell>
        <mxCell id="Zn8wyA_PSWBel0TrAcym-14" style="edgeStyle=orthogonalEdgeStyle;rounded=0;orthogonalLoop=1;jettySize=auto;html=1;exitX=1;exitY=0.5;exitDx=0;exitDy=0;entryX=0;entryY=0.5;entryDx=0;entryDy=0;shape=flexArrow;" edge="1" parent="1" source="Zn8wyA_PSWBel0TrAcym-7" target="Zn8wyA_PSWBel0TrAcym-13">
          <mxGeometry relative="1" as="geometry" />
        </mxCell>
        <mxCell id="Zn8wyA_PSWBel0TrAcym-7" value="&lt;font style=&quot;font-size: 8px;&quot;&gt;Should this innovation be protected?&lt;/font&gt;" style="rhombus;whiteSpace=wrap;html=1;fillColor=#fff2cc;strokeColor=#d6b656;" vertex="1" parent="1">
          <mxGeometry x="200" y="90" width="70" height="80" as="geometry" />
        </mxCell>
        <mxCell id="Zn8wyA_PSWBel0TrAcym-17" style="edgeStyle=orthogonalEdgeStyle;rounded=0;orthogonalLoop=1;jettySize=auto;html=1;exitX=1;exitY=0.5;exitDx=0;exitDy=0;entryX=0;entryY=0.5;entryDx=0;entryDy=0;shape=flexArrow;" edge="1" parent="1" source="Zn8wyA_PSWBel0TrAcym-13" target="Zn8wyA_PSWBel0TrAcym-16">
          <mxGeometry relative="1" as="geometry" />
        </mxCell>
        <mxCell id="Zn8wyA_PSWBel0TrAcym-13" value="Obtain protection" style="rounded=0;whiteSpace=wrap;html=1;fillColor=#f5f5f5;fontColor=#333333;strokeColor=#666666;" vertex="1" parent="1">
          <mxGeometry x="300" y="105" width="100" height="50" as="geometry" />
        </mxCell>
        <mxCell id="Zn8wyA_PSWBel0TrAcym-15" value="Yes" style="text;html=1;align=center;verticalAlign=middle;whiteSpace=wrap;rounded=0;" vertex="1" parent="1">
          <mxGeometry x="260" y="90" width="40" height="20" as="geometry" />
        </mxCell>
        <mxCell id="Zn8wyA_PSWBel0TrAcym-21" style="edgeStyle=orthogonalEdgeStyle;rounded=0;orthogonalLoop=1;jettySize=auto;html=1;exitX=1;exitY=0.5;exitDx=0;exitDy=0;entryX=0;entryY=0.5;entryDx=0;entryDy=0;shape=flexArrow;" edge="1" parent="1" source="Zn8wyA_PSWBel0TrAcym-16" target="Zn8wyA_PSWBel0TrAcym-20">
          <mxGeometry relative="1" as="geometry" />
        </mxCell>
        <mxCell id="Zn8wyA_PSWBel0TrAcym-16" value="Valuation" style="rounded=0;whiteSpace=wrap;html=1;fillColor=#ffe6cc;strokeColor=#d79b00;" vertex="1" parent="1">
          <mxGeometry x="430" y="105" width="70" height="50" as="geometry" />
        </mxCell>
        <mxCell id="Zn8wyA_PSWBel0TrAcym-18" value="Value Extraction" style="text;html=1;align=center;verticalAlign=middle;whiteSpace=wrap;rounded=0;fillColor=#dae8fc;strokeColor=#6c8ebf;" vertex="1" parent="1">
          <mxGeometry x="280" y="40" width="100" height="30" as="geometry" />
        </mxCell>
        <mxCell id="Zn8wyA_PSWBel0TrAcym-19" value="Value Extraction" style="text;html=1;align=center;verticalAlign=middle;whiteSpace=wrap;rounded=0;fillColor=#dae8fc;strokeColor=#6c8ebf;" vertex="1" parent="1">
          <mxGeometry x="410" y="40" width="100" height="30" as="geometry" />
        </mxCell>
        <mxCell id="Zn8wyA_PSWBel0TrAcym-24" style="edgeStyle=orthogonalEdgeStyle;rounded=0;orthogonalLoop=1;jettySize=auto;html=1;exitX=1;exitY=0.5;exitDx=0;exitDy=0;entryX=0;entryY=0.5;entryDx=0;entryDy=0;shape=flexArrow;" edge="1" parent="1" source="Zn8wyA_PSWBel0TrAcym-20" target="Zn8wyA_PSWBel0TrAcym-23">
          <mxGeometry relative="1" as="geometry" />
        </mxCell>
        <mxCell id="Zn8wyA_PSWBel0TrAcym-20" value="Price reduction strategy" style="rounded=0;whiteSpace=wrap;html=1;fillColor=#d5e8d4;strokeColor=#82b366;" vertex="1" parent="1">
          <mxGeometry x="530" y="75" width="70" height="110" as="geometry" />
        </mxCell>
        <mxCell id="Zn8wyA_PSWBel0TrAcym-22" value="SELL" style="rounded=0;whiteSpace=wrap;html=1;fillColor=#e1d5e7;strokeColor=#9673a6;" vertex="1" parent="1">
          <mxGeometry x="730" y="112.5" width="50" height="35" as="geometry" />
        </mxCell>
        <mxCell id="Zn8wyA_PSWBel0TrAcym-25" style="edgeStyle=orthogonalEdgeStyle;rounded=0;orthogonalLoop=1;jettySize=auto;html=1;exitX=1;exitY=0.5;exitDx=0;exitDy=0;entryX=0;entryY=0.5;entryDx=0;entryDy=0;shape=flexArrow;" edge="1" parent="1" source="Zn8wyA_PSWBel0TrAcym-23" target="Zn8wyA_PSWBel0TrAcym-22">
          <mxGeometry relative="1" as="geometry" />
        </mxCell>
        <mxCell id="Zn8wyA_PSWBel0TrAcym-29" style="rounded=0;orthogonalLoop=1;jettySize=auto;html=1;exitX=0;exitY=1;exitDx=0;exitDy=0;entryX=0.5;entryY=0;entryDx=0;entryDy=0;edgeStyle=orthogonalEdgeStyle;curved=1;" edge="1" parent="1" source="Zn8wyA_PSWBel0TrAcym-23" target="Zn8wyA_PSWBel0TrAcym-26">
          <mxGeometry relative="1" as="geometry" />
        </mxCell>
        <mxCell id="Zn8wyA_PSWBel0TrAcym-30" style="rounded=0;orthogonalLoop=1;jettySize=auto;html=1;exitX=1;exitY=1;exitDx=0;exitDy=0;entryX=0.5;entryY=0;entryDx=0;entryDy=0;edgeStyle=orthogonalEdgeStyle;curved=1;" edge="1" parent="1" source="Zn8wyA_PSWBel0TrAcym-23" target="Zn8wyA_PSWBel0TrAcym-28">
          <mxGeometry relative="1" as="geometry" />
        </mxCell>
        <mxCell id="Zn8wyA_PSWBel0TrAcym-23" value="Decision" style="rhombus;whiteSpace=wrap;html=1;fillColor=#fff2cc;strokeColor=#d6b656;" vertex="1" parent="1">
          <mxGeometry x="630" y="90" width="70" height="80" as="geometry" />
        </mxCell>
        <mxCell id="Zn8wyA_PSWBel0TrAcym-26" value="Current competitiveness" style="text;html=1;align=center;verticalAlign=middle;whiteSpace=wrap;rounded=0;fillColor=#dae8fc;strokeColor=#6c8ebf;" vertex="1" parent="1">
          <mxGeometry x="520" y="210" width="140" height="30" as="geometry" />
        </mxCell>
        <mxCell id="Zn8wyA_PSWBel0TrAcym-28" value="Future accumulation" style="text;html=1;align=center;verticalAlign=middle;whiteSpace=wrap;rounded=0;fillColor=#ffe6cc;strokeColor=#d79b00;" vertex="1" parent="1">
          <mxGeometry x="670" y="210" width="120" height="30" as="geometry" />
        </mxCell>
        <mxCell id="Zn8wyA_PSWBel0TrAcym-31" value="Yes&lt;span style=&quot;color: rgba(0, 0, 0, 0); font-family: monospace; font-size: 0px; text-align: start; text-wrap-mode: nowrap;&quot;&gt;%3CmxGraphModel%3E%3Croot%3E%3CmxCell%20id%3D%220%22%2F%3E%3CmxCell%20id%3D%221%22%20parent%3D%220%22%2F%3E%3CmxCell%20id%3D%222%22%20value%3D%22Value%20Extraction%22%20style%3D%22text%3Bhtml%3D1%3Balign%3Dcenter%3BverticalAlign%3Dmiddle%3BwhiteSpace%3Dwrap%3Brounded%3D0%3BfillColor%3D%23dae8fc%3BstrokeColor%3D%236c8ebf%3B%22%20vertex%3D%221%22%20parent%3D%221%22%3E%3CmxGeometry%20x%3D%22640%22%20y%3D%22210%22%20width%3D%22100%22%20height%3D%2230%22%20as%3D%22geometry%22%2F%3E%3C%2FmxCell%3E%3C%2Froot%3E%3C%2FmxGraphModel%3E&lt;/span&gt;" style="text;html=1;align=center;verticalAlign=middle;whiteSpace=wrap;rounded=0;" vertex="1" parent="1">
          <mxGeometry x="620" y="180" width="60" height="30" as="geometry" />
        </mxCell>
        <mxCell id="Zn8wyA_PSWBel0TrAcym-33" value="No" style="text;html=1;align=center;verticalAlign=middle;whiteSpace=wrap;rounded=0;" vertex="1" parent="1">
          <mxGeometry x="710" y="180" width="60" height="30" as="geometry" />
        </mxCell>
        <mxCell id="Zn8wyA_PSWBel0TrAcym-34" value="Value Extraction" style="text;html=1;align=center;verticalAlign=middle;whiteSpace=wrap;rounded=0;fillColor=#dae8fc;strokeColor=#6c8ebf;" vertex="1" parent="1">
          <mxGeometry x="615" y="40" width="100" height="30" as="geometry" />
        </mxCell>
      </root>
    </mxGraphModel>
  </diagram>
</mxfile>
